<?xml version="1.0" standalone="no"?>
<!DOCTYPE svg PUBLIC "-//W3C//DTD SVG 20010904//EN"
 "http://www.w3.org/TR/2001/REC-SVG-20010904/DTD/svg10.dtd">
<svg version="1.0" xmlns="http://www.w3.org/2000/svg"
 width="275.000000pt" height="183.000000pt" viewBox="0 0 275.000000 183.000000"
 preserveAspectRatio="xMidYMid meet">

<g transform="translate(0.000000,183.000000) scale(0.100000,-0.100000)"
fill="#000000" stroke="none">
<path d="M1064 1230 c-30 -12 -62 -56 -74 -102 -6 -21 -17 -96 -23 -166 -10
-101 -18 -136 -36 -165 -12 -20 -29 -37 -37 -37 -19 0 -18 5 11 75 26 63 31
100 16 110 -18 10 -59 -17 -80 -55 -24 -42 -26 -72 -10 -118 9 -27 8 -36 -11
-62 -12 -16 -28 -30 -35 -30 -32 0 -37 39 -34 275 2 129 0 237 -4 242 -17 17
-27 -27 -27 -127 0 -58 -4 -110 -8 -117 -4 -6 -20 -13 -36 -15 -17 -2 -37 -14
-48 -28 -35 -48 -36 -214 -1 -227 23 -9 39 18 58 98 10 38 21 69 26 69 5 0 9
-30 9 -67 0 -81 15 -117 52 -121 20 -2 33 6 59 37 21 26 41 41 55 41 13 0 33
13 48 32 l25 32 11 -46 c7 -26 23 -56 35 -68 24 -22 24 -22 57 -3 18 10 49 42
68 72 l35 53 3 -56 c2 -41 7 -56 18 -56 19 0 21 9 28 108 4 67 3 82 -9 82 -8
0 -24 -18 -36 -41 -24 -49 -96 -129 -115 -129 -22 0 -34 36 -41 118 -5 72 -3
83 25 147 85 196 96 237 66 249 -9 3 -16 6 -17 5 -1 0 -12 -4 -23 -9z m38 -40
c-3 -30 -71 -202 -84 -215 -12 -11 -3 88 12 145 21 77 80 134 72 70z m-408
-298 c-1 -17 -12 -64 -24 -104 l-23 -73 -10 35 c-11 43 -3 145 14 166 21 25
44 12 43 -24z m201 -48 c-9 -25 -21 -41 -27 -38 -14 9 -3 70 19 103 l18 26 3
-24 c2 -13 -4 -43 -13 -67z"/>
<path d="M2111 1142 c-14 -27 -11 -238 4 -259 14 -19 18 1 30 159 9 103 -7
150 -34 100z"/>
<path d="M1816 1058 c-20 -29 -20 -52 0 -83 16 -24 15 -27 -25 -80 -45 -59
-66 -70 -59 -30 7 34 -12 32 -47 -5 -16 -16 -33 -30 -38 -30 -11 0 0 86 15
113 5 10 8 26 6 35 -3 13 -15 6 -54 -31 -33 -30 -57 -45 -67 -41 -19 7 -73
-20 -81 -41 -11 -30 -6 -37 24 -33 34 5 41 -7 9 -15 -12 -3 -19 -12 -17 -19 9
-26 34 -12 59 35 14 27 36 58 48 70 l21 22 -1 -48 c-2 -33 3 -53 14 -64 14
-15 18 -15 41 1 14 9 26 21 26 26 0 18 18 10 23 -11 5 -17 9 -19 27 -9 11 6
37 33 56 61 20 27 40 49 45 49 12 0 58 -82 61 -109 2 -19 -7 -29 -45 -50 -71
-39 -116 -79 -135 -118 -16 -33 -16 -36 2 -49 16 -11 24 -11 55 2 45 19 117
87 141 135 11 20 26 39 35 43 22 8 55 -11 55 -31 0 -12 3 -14 11 -6 18 18 -7
53 -40 53 -25 0 -29 5 -40 53 -6 29 -25 69 -43 90 -27 34 -29 42 -18 61 6 13
10 34 8 47 -4 34 -50 39 -72 7z m56 -28 c-5 -36 -18 -45 -31 -22 -14 26 -4 54
18 50 11 -2 15 -12 13 -28z m-347 -160 c-10 -11 -25 -20 -34 -20 -11 1 -8 8
13 26 32 29 48 24 21 -6z m375 -124 c0 -39 -115 -136 -161 -136 -18 0 -9 39
17 70 24 28 117 90 137 90 4 0 7 -11 7 -24z"/>
<path d="M1287 920 c-36 -42 -54 -128 -36 -166 21 -44 54 -43 100 2 l38 37 20
-24 c22 -26 22 -26 24 28 0 20 -4 38 -9 40 -5 2 -32 -19 -59 -47 -65 -66 -85
-66 -85 -2 0 49 36 136 55 134 6 0 13 -11 17 -24 6 -22 6 -22 7 -1 3 59 -33
70 -72 23z"/>
<path d="M1420 930 c0 -5 5 -10 10 -10 6 0 10 5 10 10 0 6 -4 10 -10 10 -5 0
-10 -4 -10 -10z"/>
<path d="M2115 780 c-7 -12 2 -30 16 -30 12 0 12 27 0 35 -5 3 -12 1 -16 -5z"/>
</g>
</svg>
